REM DIRINDEX 1\2,1\3,1\4,1\5
REM DIRNAME cjc004,folder01,folder02,folder03,folder04
TITLE ""
FILE "1Q_t_0090-0099.mp3" MP3
  TRACK 01 AUDIO
    TITLE "3:cjc004_1170"
    INDEX 01 00:00:00
  TRACK 02 AUDIO
    TITLE "0:"
    INDEX 01 00:00:72
  TRACK 03 AUDIO
    TITLE "4:cjc004_1171"
    INDEX 01 00:01:22
  TRACK 04 AUDIO
    TITLE "0:"
    INDEX 01 00:02:32
  TRACK 05 AUDIO
    TITLE "5:cjc004_1172"
    INDEX 01 00:02:57
  TRACK 06 AUDIO
    TITLE "0:"
    INDEX 01 00:07:09
  TRACK 07 AUDIO
    TITLE "3:cjc004_1173"
    INDEX 01 00:07:62
  TRACK 08 AUDIO
    TITLE "0:"
    INDEX 01 00:09:04
  TRACK 09 AUDIO
    TITLE "4:cjc004_1174"
    INDEX 01 00:09:24
  TRACK 10 AUDIO
    TITLE "0:"
    INDEX 01 00:10:39
  TRACK 11 AUDIO
    TITLE "5:cjc004_1175"
    INDEX 01 00:10:66
  TRACK 12 AUDIO
    TITLE "0:"
    INDEX 01 00:13:71
  TRACK 13 AUDIO
    TITLE "3:cjc004_1176"
    INDEX 01 00:14:51
  TRACK 14 AUDIO
    TITLE "0:"
    INDEX 01 00:15:54
  TRACK 15 AUDIO
    TITLE "4:cjc004_1177"
    INDEX 01 00:16:06
  TRACK 16 AUDIO
    TITLE "0:"
    INDEX 01 00:17:23
  TRACK 17 AUDIO
    TITLE "5:cjc004_1178"
    INDEX 01 00:17:55
  TRACK 18 AUDIO
    TITLE "0:"
    INDEX 01 00:22:21
  TRACK 19 AUDIO
    TITLE "3:cjc004_1179"
    INDEX 01 00:22:74
  TRACK 20 AUDIO
    TITLE "0:"
    INDEX 01 00:24:20
  TRACK 21 AUDIO
    TITLE "4:cjc004_1180"
    INDEX 01 00:24:37
  TRACK 22 AUDIO
    TITLE "0:"
    INDEX 01 00:25:46
  TRACK 23 AUDIO
    TITLE "5:cjc004_1181"
    INDEX 01 00:26:01
  TRACK 24 AUDIO
    TITLE "0:"
    INDEX 01 00:29:33
  TRACK 25 AUDIO
    TITLE "3:cjc004_1182"
    INDEX 01 00:30:20
  TRACK 26 AUDIO
    TITLE "0:"
    INDEX 01 00:31:51
  TRACK 27 AUDIO
    TITLE "4:cjc004_1183"
    INDEX 01 00:31:71
  TRACK 28 AUDIO
    TITLE "0:"
    INDEX 01 00:33:56
  TRACK 29 AUDIO
    TITLE "5:cjc004_1184"
    INDEX 01 00:34:18
  TRACK 30 AUDIO
    TITLE "0:"
    INDEX 01 00:39:45
  TRACK 31 AUDIO
    TITLE "3:cjc004_1185"
    INDEX 01 00:40:28
  TRACK 32 AUDIO
    TITLE "0:"
    INDEX 01 00:41:47
  TRACK 33 AUDIO
    TITLE "4:cjc004_1186"
    INDEX 01 00:42:02
  TRACK 34 AUDIO
    TITLE "0:"
    INDEX 01 00:43:17
  TRACK 35 AUDIO
    TITLE "5:cjc004_1187"
    INDEX 01 00:43:48
  TRACK 36 AUDIO
    TITLE "0:"
    INDEX 01 00:47:34
  TRACK 37 AUDIO
    TITLE "3:cjc004_1188"
    INDEX 01 00:48:14
  TRACK 38 AUDIO
    TITLE "0:"
    INDEX 01 00:49:25
  TRACK 39 AUDIO
    TITLE "4:cjc004_1189"
    INDEX 01 00:49:47
  TRACK 40 AUDIO
    TITLE "0:"
    INDEX 01 00:50:56
  TRACK 41 AUDIO
    TITLE "5:cjc004_1190"
    INDEX 01 00:51:20
  TRACK 42 AUDIO
    TITLE "0:"
    INDEX 01 00:57:11
  TRACK 43 AUDIO
    TITLE "3:cjc004_1191"
    INDEX 01 00:57:64
  TRACK 44 AUDIO
    TITLE "0:"
    INDEX 01 00:59:06
  TRACK 45 AUDIO
    TITLE "4:cjc004_1192"
    INDEX 01 00:59:38
  TRACK 46 AUDIO
    TITLE "0:"
    INDEX 01 01:00:62
  TRACK 47 AUDIO
    TITLE "5:cjc004_1193"
    INDEX 01 01:01:25
  TRACK 48 AUDIO
    TITLE "0:"
    INDEX 01 01:06:47
  TRACK 49 AUDIO
    TITLE "3:cjc004_1194"
    INDEX 01 01:07:45
  TRACK 50 AUDIO
    TITLE "0:"
    INDEX 01 01:08:66
  TRACK 51 AUDIO
    TITLE "4:cjc004_1195"
    INDEX 01 01:09:20
  TRACK 52 AUDIO
    TITLE "0:"
    INDEX 01 01:10:45
  TRACK 53 AUDIO
    TITLE "5:cjc004_1196"
    INDEX 01 01:11:00
  TRACK 54 AUDIO
    TITLE "0:"
    INDEX 01 01:14:33
  TRACK 55 AUDIO
    TITLE "3:cjc004_1197"
    INDEX 01 01:15:11
  TRACK 56 AUDIO
    TITLE "0:"
    INDEX 01 01:16:14
  TRACK 57 AUDIO
    TITLE "4:cjc004_1198"
    INDEX 01 01:16:44
  TRACK 58 AUDIO
    TITLE "0:"
    INDEX 01 01:17:71
  TRACK 59 AUDIO
    TITLE "5:cjc004_1199"
    INDEX 01 01:18:23
  TRACK 60 AUDIO
    TITLE "0:"
    INDEX 01 01:23:03
